<svg xmlns="http://www.w3.org/2000/svg" viewBox="0 0 260.65 178.41"><g id="Layer_2" data-name="Layer 2"><g id="Logo"><path d="M260.63,61.83c-.27-13.08-9.43-21.44-13.75-25.35-4.45,5.26-7.95,9.71-7.95,9.71s-2-7.75-6.54-11-12.95-5.93-12.95-5.93l-15,10.51,4.85-11.52s1.15-2-1.88-.61S188.3,37,188.3,37l-.07-6.88-3,1.62-3.85-5.46-1.75,2,.61-15.91A12.18,12.18,0,0,0,189,14.3c5.06-.87,9.78-4.38,16.85-13.62a51.05,51.05,0,0,1-16,5.8c-6.81,1.28-8.63-2.56-11.33-5s-2.7-2.15-3,2.7-1.89,25.41-1.89,25.41S165,26.91,161,36.28c-2.9-.61-2-7.89-1.82-10.32L146.09,41.6l.14-13.07L130,36.35l-.56-4.86s1.42-1.55,2.09-8.63.14-15.37-6.13-15.77S117,17.27,116,20.84s-5.64,19.3-7.42,21.78c-.84,1.16-1.88,3-9.91,7.68-1.28-2.7-3-6.2-3-6.2l2.49-2.5L86.57,38.84s-8,14.76-10.72,18.74-4.65,7.62-8,10.18A34,34,0,0,0,72.27,73C68.16,75.25,60,79.49,60,79.49l4.39-18.2,3.5,2.49,5.53-11.59L57.31,43.43,47.53,96.75S79.29,82.19,81.85,80.91a45.48,45.48,0,0,0,6.6-4.38c-1.34-2.09-7-10.79-7-10.79l7.15-10.52,2.83,5.13a16.18,16.18,0,0,0-.81,12c1.48,5,4.18,6,4.18,6S82.12,95,81.64,95.74s-.33,3.17,3.44.27,11.6-9.51,11.6-9.51-12.27,39.64-16.31,45.84-16,13.06-26,7.15c-5.28-3.14-9.43-14.14-8.64-19.82.68-4.85,9.07-11.32,9.07-11.32,3.13-2.23,3.69-6.12,1.42-8,0,0-4.76-3.19-9.71,2.58-3.06,3.55-4,5.11-4.24,5.78l1.61-13.92,3.39-1.67,1.06-12-5.87,3.8L41.06,65.27l9.17-6.54,6.61-16.11L42.75,48.35l-4.12,5.46.14-7.22L13.56,68.17s.33-5.33.87-8.36-2.53-3.71-4,.6C8.78,65.29,1.64,85.14,1,86.81s-.65,3.38,3.79-.31S18.73,74.82,18.73,74.82L0,110.44s1.22,6.54,1.42,7.41,0,2.7,3,.68S33.58,99.92,33.58,99.92s-3.51,75.44-3.64,76.92.13,3.37,1.75-2,8.49-51.24,8.49-51.24,1,16.71,15.38,23.19c11.6,5.21,28.34.41,34.21-19.61s15.37-44.9,15.37-44.9c4.72,1.75,10.15-4,11.7-7,1.68,5.46,16.58,9.91,24.74-4,4.18,10.31,14.9,10.31,20.69,6.13L160.71,84s-.41,1.66,1.87,0,8.85-5.67,8.85-5.67L173.35,82s10.46-.91,23.15,7.44c6.22-2.58,7.8-4.2,9.86-8,2.23-4.15,5.35-12,5.26-18.61-.07-5.61-1-9.3-4.45-13.25l15.07-9.71s9.71.71,7.08,18.61-13.46,25.93-19.11,30.24c-6,4.55-12.44,7.38-19.52,7.38s-11.53-.1-12.84-.1-2.13.4.2,1.82,8.8,4.65,8.8,4.65,1.11,8.9-10.82,16.18-27.41,3.64-35.19-4.85S127,85.7,127,85.7s-2.61,10.23-1.92,13.85c1.11,5.86,8.43,17.72,14.56,23.16s25.78,12.92,40,4c15.08-9.39,16.68-22,16.68-22s7.89-.41,18.41-8.6c7.37-5.74,19-13.76,24.44-33.88a52.37,52.37,0,0,0,1.48-6.74l6.07-6.74a31.68,31.68,0,0,1,5,23.73c-2.56,14-12.26,22.52-17,23.19a51.05,51.05,0,0,1-9.17.41,7,7,0,0,0,5,3.91c3.91.94,9.2,1.21,12.6-.61,3.91-2.09,10.78-8.55,12.88-13.56C258.42,80.18,260.9,74.91,260.63,61.83ZM18.34,98,30.48,73.16,32.57,88.8Zm23.85,11.13s-.1-.07.06-.48Zm61.58-47.43-2.88-6.07,5.77-4ZM109.39,75l-.46-2,1.92.51C110.75,74.17,109.39,75,109.39,75Zm-.46-9.86.66-2.84a8.12,8.12,0,0,1,1.77,3.09Zm2.43-11,2.27-9c1.68,2.51,6.72-2.56,7-2.82-3.43,6-1.35,6.77-1.35,6.77Zm6.82,10.52a6.55,6.55,0,0,0-2.17-4.3L123.33,56Zm7.5-41.46c-.37,2.2-.47,6.22-8.51,12.74,0,0,2.68-8.44,3.44-12.74s1.77-8.8,3.74-10.06c.51-.25,1.23,1.27,1.32,2A33,33,0,0,1,125.68,23.15Zm53.85,9.56a10.17,10.17,0,0,1-.23,3.5c-.17.91-.23,1.35.47,2,.4.37,2,.17,2,.17l-1.24,2.32s-1-1.37-1.59-1.24c-1.35.3-1.11.87-1.68,1.48a4.66,4.66,0,0,1-3.2,1.08S178,40.32,179.53,32.71ZM135,56.93a1.54,1.54,0,0,0,.76,2.62c1.11.31,4.2-.91,4.2-.91a2.08,2.08,0,0,1,.75,1.37c.16,1,.48,3.69-3.17,6.67s-6.74,3.73-7.7,3.69-1.26-3.89-.86-8.09a12,12,0,0,1,2.63-6.87c.76-1.11,6.83-7.74,8.55-8.75s4.09-1.26,4.8-1.92a5.71,5.71,0,0,1,.91-.76L148,45.45S135.88,55.76,135,56.93ZM155.7,69.26c-2.27,3.34-8.24-1.51-8.24-6.27s3.44-15.57,3.44-15.57a70,70,0,0,1,4.95,8.8C157.22,59.55,158.94,64.5,155.7,69.26Zm16.79-7.18c-1.27.66-4.15,4.1-4.15,4.1l-9.91-19.11a24.74,24.74,0,0,0,11.48,3.69c4.09.15,5-1.07,6.12-1.92.05,1.26.86,2.93,2.63,2.07s15-8.34,15-8.34-.45,1.56-1.06,4.09c-3.84,2.78-12.79,12.89-17.24,17.29A1.93,1.93,0,0,0,172.49,62.08Zm24,14.72c-3.5-1.35-12.27-4.79-17-5.2V69.92l17.94-14.36s3.77,3.51,4.44,6.4S201.85,72.55,196.52,76.8Z"/><path d="M207.35,118.19a6.19,6.19,0,0,1,2-1.81c.29.43.28.46-.1.73a2.46,2.46,0,0,0-1.15,2.1c0,1.89,0,3.78.05,5.67,0,1.57.05,3.14.09,4.72,0,.4.07.81.12,1.21a1.16,1.16,0,0,0,.17.42.29.29,0,0,0,.48.09c.2-.16.39-.34.58-.51.32.31.33.35.07.64-.61.67-1.22,1.33-1.81,2-.16.17-.26.17-.43,0a2.68,2.68,0,0,1-1-2c0-.35-.07-.71-.11-1.13l-.22.2-3,2.84c-.18.19-.29.2-.52,0-.88-.66-1.79-1.29-2.7-1.91a2.39,2.39,0,0,0-.8-.29.54.54,0,0,0-.7.6,6.89,6.89,0,0,0,.29,1c0,.13.11.3.06.41a.65.65,0,0,1-.34.4.49.49,0,0,1-.44-.21,1.45,1.45,0,0,1-.16-1.34,11.67,11.67,0,0,1,.74-1.83c.45-.88,1-1.73,1.48-2.59a.34.34,0,0,0-.07-.49,6.15,6.15,0,0,1-1.9-3c-.52-2.42-.19-4.67,1.71-6.42a5.05,5.05,0,0,1,6.67-.24Zm-6.92,8.73.89-1.54c.64-1.12,1.29-2.23,1.92-3.35,0-.08.09-.24,0-.29a1.38,1.38,0,0,0-1.9,0c-.13.14-.21.32-.34.46a1.24,1.24,0,0,1-.28.22c0-.12-.12-.25-.1-.35a2.67,2.67,0,0,1,1.41-2.09,2.19,2.19,0,0,1,2,.07c.2.09.31.07.4-.13a4.34,4.34,0,0,1,.37-.63c.13-.19.07-.27-.11-.38a4.05,4.05,0,0,0-4.68.46A5,5,0,0,0,200.43,126.92Zm5-7.65L201.51,126h4.72a.44.44,0,0,0,0-.08c0-1.87-.07-3.74-.11-5.61a.36.36,0,0,0-.06-.23C205.89,119.84,205.67,119.59,205.39,119.27Zm-5.68,9.87,4.37,2.39a.42.42,0,0,0,.34-.06c.59-.54,1.17-1.09,1.74-1.66a.53.53,0,0,0,.15-.36c0-.47,0-.94,0-1.4,0-.2-.06-.27-.26-.27h-5.33a.36.36,0,0,0-.26.09C200.2,128.28,200,128.7,199.71,129.14Z"/><path d="M219.34,122.07a1.78,1.78,0,0,1,0,.3c0,.66,0,1.32,0,2,0,.27-.1.3-.33.23l-1.26-.32c0,.11,0,.19,0,.26,0,1.87,0,3.74,0,5.61a4,4,0,0,0,.61,2.11,15.36,15.36,0,0,1,.76,1.45,1.33,1.33,0,0,1-.3,1.65,23.62,23.62,0,0,1-2.07,1.49.38.38,0,0,1-.31,0,5.78,5.78,0,0,0-4.29-.06c-.14.05-.38.09-.46,0s-.08-.35.05-.54c.65-.95,1.29-1.92,2-2.9l-1.12-1c-.32-.31-.77-.56-.94-.94a3.59,3.59,0,0,1-.06-1.32c0-2.2,0-4.41,0-6.61a.36.36,0,0,1,.31-.43,8.16,8.16,0,0,0,2.75-1.41.35.35,0,0,1,.48,0c.76.47,1.53.91,2.29,1.39a.39.39,0,0,0,.49,0c.38-.27.78-.51,1.17-.77Zm-5.81,1.13a1.38,1.38,0,0,0,0,.25v6.94a.42.42,0,0,0,.06.26c.39.37.8.73,1.22,1.11.36-.54.7-1,1-1.53a.49.49,0,0,0,.08-.29c0-1.84,0-3.67,0-5.51a.35.35,0,0,0-.14-.27ZM218,135.11a7.65,7.65,0,0,1-2.14-4.18l-2.62,3.78.15,0,.54-.09a4.72,4.72,0,0,1,3.48.61C217.71,135.41,217.87,135.38,218,135.11Z"/><path d="M230.65,129.1,229,128a.47.47,0,0,1-.25-.45c0-1.24,0-2.47,0-3.71a.38.38,0,0,1,.28-.41,4.07,4.07,0,0,0,2-1.71c.11-.19.23-.2.42-.1a7.45,7.45,0,0,0,2.19.88,1.18,1.18,0,0,0,1.18-.31.59.59,0,0,0,0-.89,1.08,1.08,0,0,1-.28-1.17c.08-.17.26-.37.41-.38a.62.62,0,0,1,.49.27,1.7,1.7,0,0,1,.06,1.69,18.7,18.7,0,0,1-1,1.82c-.39.67-.8,1.32-1.21,2-.13.2-.1.29.09.41l1.58,1a.5.5,0,0,1,.25.47c0,1.39,0,2.77,0,4.15,0,.28-.05.4-.36.46a3.71,3.71,0,0,0-2.07,1.3c-.34.37-.35.37-.76.08a3,3,0,0,0-1.79-.59,2.19,2.19,0,0,0-1.56.71c-.09.08-.26.16-.34.13a.47.47,0,0,1-.24-.32.52.52,0,0,1,.11-.32l2.33-3.72A.89.89,0,0,0,230.65,129.1Zm2.73,2.54c0-1,0-2,0-3a.26.26,0,0,0-.1-.2c-.37-.28-.76-.53-1.17-.82L230,131.11C231.48,130.71,231.48,130.71,233.38,131.64Zm-1.62-4.39,1.86-3.12a3.09,3.09,0,0,1-3-.75c0,.05-.06.06-.06.08,0,1,0,1.9,0,2.86a.29.29,0,0,0,.12.22C231,126.78,231.38,127,231.76,127.25Z"/><path d="M254.54,133.64a2.94,2.94,0,0,1-.92-1.17,10.76,10.76,0,0,1-.35-1.41l-2.58,2.63a5.18,5.18,0,0,1-1.12-1.42,4.36,4.36,0,0,1,0-4.05,24.32,24.32,0,0,1,1.25-2.29.49.49,0,0,0,.06-.47c-.32-.82-.62-1.65-.92-2.48-.13-.35,0-.53.36-.5a2.17,2.17,0,0,0,1.88-.81c.17-.2.28-.19.48,0a5.84,5.84,0,0,0,2,.84c.45.1.55.07.81-.32.08-.11.18-.24.31-.11a.38.38,0,0,1,.06.32,5.55,5.55,0,0,0-.62,2.91c0,1.81,0,3.62,0,5.42a1.88,1.88,0,0,0,.12.66c.1.28.32.32.55.13,0,0,.08-.11.13-.13a1.19,1.19,0,0,1,.27-.07c0,.13.1.31,0,.37C255.76,132.31,255.16,133,254.54,133.64Zm-2.55-2,1.27-1.27a.45.45,0,0,0,.06-.29c0-.77,0-1.54,0-2.31a.5.5,0,0,0-.19-.36c-.56-.37-1.14-.7-1.71-1.06-.15-.09-.24-.07-.29.1a5.76,5.76,0,0,0-.27,3.31A3.68,3.68,0,0,0,252,131.67Zm1.33-4.64c0-.93,0-1.77,0-2.61a.35.35,0,0,0-.26-.38l-2.49-1a1.17,1.17,0,0,0-.22,0c.34.94.68,1.84,1,2.74a.23.23,0,0,0,.09.12Z"/><path d="M227.31,131.19c.25.22.23.38,0,.59-.57.6-1.12,1.22-1.7,1.86a3.12,3.12,0,0,1-1.21-2.58l-2.61,2.66a3.82,3.82,0,0,1-.33-.31,4.52,4.52,0,0,1-.76-5.45,22.69,22.69,0,0,1,1.15-2,.43.43,0,0,0,.06-.44c-.33-.84-.63-1.68-.93-2.51-.13-.34,0-.52.35-.49a2.19,2.19,0,0,0,1.89-.8c.17-.21.29-.2.5-.06a5.65,5.65,0,0,0,2,.84c.47.1.55.06.85-.32a.32.32,0,0,1,.29-.11c.17,0,.15.19.07.32a5.64,5.64,0,0,0-.63,3.05c0,1.75,0,3.49,0,5.24a2.12,2.12,0,0,0,.11.66c.11.34.33.38.59.13Zm-4.23.48c.43-.43.85-.83,1.26-1.26a.49.49,0,0,0,.07-.31q0-1.15,0-2.31a.52.52,0,0,0-.2-.35c-.56-.37-1.14-.7-1.71-1.06-.16-.1-.24-.07-.29.1a6,6,0,0,0-.28,3.29A3.8,3.8,0,0,0,223.08,131.67Zm1.33-4.64c0-.92,0-1.75,0-2.58a.37.37,0,0,0-.29-.42L222,123.2l-.61-.21,1,2.56c0,.12.08.28.17.34Z"/><path d="M240.75,131.27c.27.21.32.37.07.6-.6.55-1.18,1.13-1.86,1.79a.85.85,0,0,0-.12-.23,4.88,4.88,0,0,0-1.92-1.5c-.22-.09-.26-.25-.1-.4a1.9,1.9,0,0,0,.53-1.51c0-2.17,0-4.34,0-6.52,0-.16-.05-.24-.22-.23h-.22c-.42,0-.58-.27-.35-.65.78-1.23,1.58-2.46,2.38-3.68,0-.08.17-.1.26-.15a.86.86,0,0,1,.11.29c0,.85,0,1.7-.08,2.55,0,.23.06.31.29.3.39,0,.79,0,1.19,0,.23,0,.34.07.32.31s0,.51,0,.76-.07.27-.27.27c-.41,0-.81,0-1.22,0-.22,0-.32,0-.32.3,0,2.36,0,4.73,0,7.09a.64.64,0,0,0,.15.37c.2.22.43.41.63.62s.22.14.35,0S240.62,131.4,240.75,131.27Z"/><path d="M245,123.55l1.47-1.62c.45-.49.45-.49.82.06s.6.9.88,1.35c.05.08.08.24,0,.29-.4.46-.82.91-1.23,1.36l-.11,0c-.18-.28-.36-.56-.53-.84l-.57-.9c-.28.34-.55.65-.8,1-.05.06,0,.18,0,.27q0,3,0,6.09a.79.79,0,0,0,.2.47c.23.25.5.47.78.72l.9-.85c.3.31.3.33,0,.6L245,133.44l-.23.21-.55-.58a4.5,4.5,0,0,0-1.61-1.12c-.24-.1-.28-.25-.08-.44a1.62,1.62,0,0,0,.49-1.23c0-2,0-4,0-6a1.47,1.47,0,0,0-.06-.42c-.16-.5-.39-.55-.74-.17-.06.06-.17.16-.2.14a.39.39,0,0,1-.17-.23c0-.06,0-.15.08-.21.53-.59,1.08-1.18,1.61-1.78.13-.16.22-.13.34,0a2.83,2.83,0,0,1,1,1.92Z"/><path d="M259.32,133.66c-.45-.58-.87-1.11-1.27-1.64a.26.26,0,0,1,0-.24l1.27-1.62.26.28c.34.43.68.85,1,1.29a.33.33,0,0,1,.06.26C260.22,132.54,259.78,133.08,259.32,133.66Z"/></g></g></svg>